Coordinates
version=1
nRows=22
nColumns=24
inDegrees=yes

Units are S.I. units (second, meters, Newtons, ...)
Angles are in degrees.

endheader
time	pelvis_tilt	pelvis_list	pelvis_rotation	pelvis_tx	pelvis_ty	pelvis_tz	hip_flexion_r	hip_adduction_r	hip_rotation_r	knee_angle_r	ankle_angle_r	subtalar_angle_r	mtp_angle_r	hip_flexion_l	hip_adduction_l	hip_rotation_l	knee_angle_l	ankle_angle_l	subtalar_angle_l	mtp_angle_l	lumbar_extension	lumbar_bending	lumbar_rotation
      3.59500000	     12.61219440	      0.04562915	     -6.00265533	     -0.55451870	      0.94265541	     -0.01784784	    -23.13492555	     -2.63952666	     -0.36467784	    -12.86798498	     30.70687580	     19.38947882	     16.54066467	      2.73490590	      0.06657344	    -24.52012405	     -1.80638440	      6.09876184	     26.91180626	     37.52623060	    -25.02933643	      2.15321104	      7.13580726
      3.60000000	     12.65917138	      0.00579556	     -6.09381204	     -0.54940093	      0.94211651	     -0.01804289	    -23.26906878	     -2.72446218	     -0.32369098	    -13.37803176	     30.77922424	     19.61800378	     16.61403116	      2.75559378	      0.07382084	    -23.82221146	     -2.48779714	      5.90304282	     26.07571341	     37.43553278	    -25.01292454	      2.02024156	      7.12337222
      3.60500000	     12.70507793	     -0.02993191	     -6.17376950	     -0.54427521	      0.94161536	     -0.01827263	    -23.37948931	     -2.81399053	     -0.30852967	    -13.93604720	     30.83984336	     19.87778387	     16.72953182	      2.76821704	      0.09048053	    -23.03681150	     -3.16258044	      5.65046716	     25.13926704	     37.31450599	    -24.99345682	      1.88566101	      7.10010737
      3.61000000	     12.74572026	     -0.05222710	     -6.23626578	     -0.53912286	      0.94115400	     -0.01856722	    -23.46447293	     -2.91737805	     -0.33974876	    -14.53447373	     30.87168219	     20.16437720	     16.89860148	      2.77585371	      0.12972057	    -22.16541990	     -3.81951320	      5.32431449	     24.10225889	     37.15905849	    -24.96233552	      1.74558178	      7.06065786
      3.61500000	     12.78488492	     -0.06138385	     -6.28686214	     -0.53396687	      0.94075271	     -0.01891974	    -23.52851887	     -3.03585597	     -0.39051323	    -15.16716515	     30.86254467	     20.46959636	     17.12490300	      2.77761935	      0.19146037	    -21.22665423	     -4.46015456	      4.94797728	     22.96253954	     36.96933191	    -24.92836368	      1.59736934	      7.00843046
      3.62000000	     12.82397859	     -0.05786755	     -6.32441157	     -0.52880071	      0.94041462	     -0.01934128	    -23.56334166	     -3.17134697	     -0.49034096	    -15.85571848	     30.81423329	     20.80722274	     17.45250060	      2.77207102	      0.27551655	    -20.24285734	     -5.08345407	      4.53420691	     21.77181673	     36.73528307	    -24.89209864	      1.44484673	      6.93876010
      3.62500000	     12.86823951	     -0.03823411	     -6.34685191	     -0.52363216	      0.94015352	     -0.01980546	    -23.58079367	     -3.32203908	     -0.60096528	    -16.58613703	     30.71142303	     21.15836399	     17.86935766	      2.75621937	      0.38379476	    -19.24569795	     -5.69415078	      4.09701117	     20.52005866	     36.46116882	    -24.85936980	      1.27850707	      6.84540022
      3.63000000	     12.93434297	     -0.02897989	     -6.39903333	     -0.51848641	      0.94001848	     -0.02025706	    -23.59073257	     -3.47996188	     -0.65906322	    -17.33930948	     30.31879947	     21.43967103	     21.16532138	      2.70040310	      0.48359613	    -18.29567762	     -6.29580046	      3.76192237	     19.36648725	     35.08007119	    -24.85792964	      1.11215745	      6.79067496
      3.63500000	     12.96758730	      0.00506455	     -6.38782726	     -0.51331533	      0.93991346	     -0.02084426	    -23.54653609	     -3.64295019	     -0.80574899	    -18.15599602	     30.07408163	     21.79775930	     21.34042857	      2.68763086	      0.61786072	    -17.25964697	     -6.89469943	      3.38358263	     18.05061344	     34.81600066	    -24.81390652	      0.94858941	      6.65674559
      3.64000000	     13.00000421	      0.06100140	     -6.38073518	     -0.50816094	      0.93988301	     -0.02148917	    -23.45335455	     -3.84452492	     -0.98431473	    -19.05543423	     29.80293503	     22.25525242	     21.70160984	      2.66741222	      0.78185041	    -16.26099112	     -7.47750624	      3.01730458	     16.75725352	     34.49401735	    -24.77047313	      0.76735879	      6.52943895
      3.64500000	     13.07567237	      0.10516729	     -6.38803005	     -0.50301432	      0.94000299	     -0.02210419	    -23.38924905	     -4.04300962	     -1.11861589	    -19.94619986	     29.22820422	     22.58425496	     25.01880479	      2.59729338	      0.93012018	    -15.37325940	     -8.09257910	      2.82688207	     15.66700984	     32.68739709	    -24.77808947	      0.58686161	      6.42858830
      3.65000000	     13.10067407	      0.14910659	     -6.34421529	     -0.49792083	      0.94011491	     -0.02285759	    -23.21913705	     -4.23066808	     -1.31352246	    -20.96149793	     28.82934103	     23.06485268	     25.20014789	      2.58611064	      1.08123935	    -14.42636750	     -8.69472260	      2.59138044	     14.48180794	     32.42380168	    -24.73902294	      0.43871688	      6.28845546
      3.65500000	     13.16466421	      0.21868575	     -6.31143567	     -0.49277904	      0.94036110	     -0.02360547	    -23.06215936	     -4.46103687	     -1.52888252	    -21.99472036	     28.11017663	     23.47734762	     28.24437414	      2.50815582	      1.26205383	    -13.59369501	     -9.28168707	      2.57302012	     13.57548851	     30.40013354	    -24.73557862	      0.25688843	      6.14856732
      3.66000000	     13.16718834	      0.29458729	     -6.26937448	     -0.48770088	      0.94057833	     -0.02442007	    -22.76944958	     -4.70470658	     -1.76415843	    -23.17183406	     27.57913754	     24.06618165	     28.47773455	      2.49655049	      1.44580142	    -12.78738634	     -9.85362030	      2.50291541	     12.60947785	     30.11802241	    -24.67118430	      0.08270966	      5.99750625
      3.66500000	     13.19814900	      0.37583012	     -6.20587051	     -0.48265743	      0.94088296	     -0.02529648	    -22.46832660	     -4.96333065	     -2.04325740	    -24.41012183	     26.96017066	     24.70558018	     28.93313829	      2.44425383	      1.63891107	    -12.02857859	    -10.41202696	      2.49543475	     11.74107591	     29.78123888	    -24.64440819	     -0.08581336	      5.87492706
      3.67000000	     13.27531118	      0.43781195	     -6.15206537	     -0.47757223	      0.94134821	     -0.02608718	    -22.21431594	     -5.19664110	     -2.24569039	    -25.59003379	     25.84232187	     25.01624135	     33.83378690	      2.31509287	      1.79967163	    -11.43193438	    -10.97660486	      2.83042237	     11.28212112	     27.02587879	    -24.66688255	     -0.24863947	      5.72596322
      3.67500000	     13.27699342	      0.51161902	     -6.09573437	     -0.47258548	      0.94172947	     -0.02696320	    -21.78880610	     -5.46560807	     -2.49627205	    -26.96298783	     25.05819798	     25.71264508	     34.01983404	      2.25844586	      1.96761069	    -10.86652063	    -11.48706133	      2.97499406	     10.74525269	     26.79434883	    -24.61557514	     -0.40482894	      5.61507792
      3.68000000	     13.33827162	      0.59772237	     -6.03116093	     -0.46756628	      0.94224476	     -0.02779749	    -21.42336200	     -5.73992267	     -2.72951267	    -28.29039842	     23.91431603	     26.06987007	     37.72562597	      2.11133623	      2.14665016	    -10.39890046	    -11.98658051	      3.42238762	     10.47010710	     24.02134066	    -24.62512206	     -0.58167064	      5.46316416
      3.68500000	     13.32582517	      0.71292758	     -5.96765415	     -0.46261069	      0.94267936	     -0.02866858	    -20.90202809	     -6.06040061	     -2.98529222	    -29.77140195	     22.98843576	     26.67778373	     37.94837680	      2.01571447	      2.34742633	     -9.97622666	    -12.39351935	      3.68002752	     10.20106952	     23.75586851	    -24.55788935	     -0.77631780	      5.31779234
      3.69000000	     13.38295390	      0.78601608	     -5.90690953	     -0.45767958	      0.94327428	     -0.02944799	    -20.45373648	     -6.33267044	     -3.19206085	    -31.18678678	     21.72144018	     27.02285978	     41.29025274	      1.82069274	      2.48873968	     -9.69458279	    -12.79803973	      4.17673789	     10.28213149	     21.12954146	    -24.57443231	     -0.94108366	      5.20501473
      3.69500000	     13.41073633	      0.88924095	     -5.85618545	     -0.45278861	      0.94383336	     -0.03021803	    -19.92070078	     -6.64943169	     -3.39304898	    -32.70136092	     20.67672895	     27.54239182	     41.37882560	      1.63039564	      2.65777227	     -9.47320187	    -13.12099073	      4.50358582	     10.28960806	     21.01439417	    -24.55739228	     -1.13664219	      5.09564880
      3.70000000	     13.43848949	      0.97417550	     -5.80564291	     -0.44794538	      0.94442489	     -0.03094069	    -19.36492578	     -6.93613427	     -3.55975990	    -34.19666058	     19.41764363	     27.74720193	     44.02965749	      1.41684968	      2.79694540	     -9.33262200	    -13.42075318	      5.04706837	     10.48616939	     18.53658473	    -24.54781771	     -1.31431945	      4.97724939
